<?xml version="1.0" encoding="utf-8"?>
<!-- Generator: Adobe Illustrator 24.3.0, SVG Export Plug-In . SVG Version: 6.00 Build 0)  -->
<svg version="1.1" id="Layer_1" xmlns="http://www.w3.org/2000/svg" xmlns:xlink="http://www.w3.org/1999/xlink" x="0px" y="0px"
	 viewBox="0 0 48 48" style="enable-background:new 0 0 48 48;" xml:space="preserve">
<style type="text/css">
	.st0{fill:#FFFFFF;}
</style>
<path class="st0" d="M44.7,9.1L31.2,5.2c-0.8-0.2-1.7-0.2-2.6,0l-17.6,5c-2,0.6-3.3,2.3-3.4,4.4c0,0,0,0,0,0.1v4
	C4.5,21.9,0.1,27.2,0,31.9c0,0.4,0,0.7,0,1.1c0.1,1.7,1.1,3.3,2.7,4.1c0.8,0.4,1.7,0.7,2.6,0.7c1.5-0.1,2.9-0.4,4.3-1
	c0.3,2.3,1.7,4.4,3.7,5.5c0.8,0.5,1.8,0.7,2.7,0.7c2.1-0.2,4.1-0.8,5.9-1.7l1.2,0.6c0.6,0.3,1.4,0.5,2.1,0.5c0.4,0,0.9-0.1,1.3-0.2
	l18.2-5.9c2-0.5,3.4-2.4,3.4-4.5V13.5C48,11.5,46.6,9.7,44.7,9.1z M11.3,11.1l9-2.5l13.2,3.8c1.5,0.5,2.5,1.9,2.5,3.5v5L26.3,24
	v-5.6c0-1.2-0.8-2.2-1.9-2.4l-13.2-3.8c-0.5-0.1-1-0.1-1.4,0C10.2,11.6,10.7,11.3,11.3,11.1L11.3,11.1z M4.8,36
	c-1.4-0.7-2.3-2.3-2.1-3.9c0.2-2.6,2.5-5.9,5-8.8V33c0,1,0.6,1.9,1.5,2.3l0.4,0.2c0,0.1,0,0.2,0,0.3C7.8,36.3,6.1,36.6,4.8,36z
	 M20.8,40.8c-2,0.7-4.1,1-5.6,0.4c-1.8-0.8-3-2.5-3-4.5l0,0l4.2,2l4.6,2.1L20.8,40.8z M22.8,40.4l-6-2.8l-4.6-2.1c0,0,0-0.1,0-0.1
	c0.9-4.8,6.2-12.1,9.1-15.2c0.4-0.4,0.4-1,0-1.4c-0.1-0.1-0.3-0.2-0.4-0.3l-1.2-0.4c-0.4-0.1-0.8,0-1.1,0.3c-1.8,2-7.9,9.3-8.9,15.5
	c0,0.1-0.1,0.3-0.1,0.4l0,0c-0.5-0.2-0.9-0.7-0.9-1.3V22.1c1.6-1.8,3.3-3.4,4.4-4.6c0.4-0.4,0.4-1,0-1.4c-0.1-0.1-0.3-0.2-0.4-0.3
	l-1.2-0.4c-0.4-0.1-0.8,0-1.1,0.3c-0.4,0.4-0.9,1-1.7,1.7v-3c0-0.5,0.3-0.9,0.6-1.1C9.6,13.1,10,13,10.4,13c0.2,0,0.3,0,0.5,0.1
	l13.2,3.8c0.7,0.2,1.2,0.8,1.2,1.5v20.7c0,0.5-0.3,1-0.7,1.3C24,40.7,23.4,40.7,22.8,40.4L22.8,40.4z M47,31.9
	c0,1.6-1.1,3.1-2.7,3.5l-18.2,5.9c-0.4,0.1-0.9,0.2-1.4,0.1c0.1,0,0.2-0.1,0.3-0.1c0.7-0.4,1.2-1.3,1.2-2.1v-5.5L47,27.1V31.9z
	 M47,17.4l-9.9,3.2v-4.7c0-2-1.4-3.8-3.3-4.4L22.1,8.1l6.8-1.9c0.3-0.1,0.7-0.1,1-0.1c0.3,0,0.7,0.1,1,0.2l13.5,3.9
	c1.6,0.4,2.6,1.8,2.6,3.4V17.4z"/>
</svg>
